PathFileType	4	(X/Y/Z)	C:/Users/opensim2020/Desktop/walking_exp_matlab/subject01_walking07_straight_02.trc																																																																																																																															
DataRate	CameraRate	NumFrames	NumMarkers	Units	OrigDataRate	OrigDataStartFrame	OrigNumFrames																																																																																																																											
100	100	4	43	mm	100	1540	178																																																																																																																											
Frame#	Time	LFHD			RFHD			LBHD			RBHD			C7			T10			CLAV			STRN			RBAK			LSHO			LUPA			LELB			LFRM			LWRA			LWRB			LFIN			RSHO			RUPA			RELB			RFRM			RWRA			RWRB			RFIN			LASI			RASI			LPSI			RPSI			LTHI			LKNE			LTIB			LANK			LHEE			LTOE			RTHI			RKNE			RTIB			RANK			RHEE			RTOE			*39			*40			*41			*42		
		X1	Y1	Z1	X2	Y2	Z2	X3	Y3	Z3	X4	Y4	Z4	X5	Y5	Z5	X6	Y6	Z6	X7	Y7	Z7	X8	Y8	Z8	X9	Y9	Z9	X10	Y10	Z10	X11	Y11	Z11	X12	Y12	Z12	X13	Y13	Z13	X14	Y14	Z14	X15	Y15	Z15	X16	Y16	Z16	X17	Y17	Z17	X18	Y18	Z18	X19	Y19	Z19	X20	Y20	Z20	X21	Y21	Z21	X22	Y22	Z22	X23	Y23	Z23	X24	Y24	Z24	X25	Y25	Z25	X26	Y26	Z26	X27	Y27	Z27	X28	Y28	Z28	X29	Y29	Z29	X30	Y30	Z30	X31	Y31	Z31	X32	Y32	Z32	X33	Y33	Z33	X34	Y34	Z34	X35	Y35	Z35	X36	Y36	Z36	X37	Y37	Z37	X38	Y38	Z38	X39	Y39	Z39	X40	Y40	Z40	X41	Y41	Z41	X42	Y42	Z42	X43	Y43	Z43
																																																																																																																																		
112	1.11	109.41054	1677.47217	1046.77356	148.81499	1681.92261	1155.20654	-2.83492	1632.34351	1083.17395	35.93504	1636.92236	1197.30261	-31.40886	1437.53491	1117.32581	-65.89902	1144.70898	1119.50635	111.93709	1371.9198	1105.14404	156.1808	1217.21619	1095.03577	-78.37151	1243.65344	1195.74841	40.45596	1403.11145	949.0224	2.03388	1219.49683	865.68915	-17.13979	1069.6665	867.6665	14.75311	960.54089	839.38263	87.97517	840.979	853.69849	32.8734	839.3125	830.23828	77.45401	766.87543	820.92529	63.1875	1399.88232	1261.65637	16.00908	1197.43127	1363.09985	20.82	1072.49011	1365.14746	61.07776	958.11469	1393.66455	152.48328	851.1886	1373.35901	109.44276	846.30005	1412.13708	153.92387	772.10455	1406.41345	99.90508	939.83002	998.62396	113.8535	940.91632	1216.03064	-81.58456	947.35968	1059.41516	-73.31461	952.99072	1204.09045	130.19437	615.71948	929.09064	144.70451	484.06058	935.78809	10.71657	360.0235	938.97443	-131.7746	196.62685	993.80859	-174.35715	196.69809	1055.30664	-56.08253	69.42609	972.68774	66.07298	605.78442	1269.46753	77.75501	447.58832	1242.49792	21.51407	279.17545	1249.88464	-8.20085	76.02097	1197.33752	-59.08648	39.73972	1148.35474	132.19815	34.68346	1193.71094	131.63084	1715.74573	1136.07422	-1973.06042	1023.93311	3102.10913	-2012.56079	1021.88037	3140.56616	NaN	NaN	NaN
113	1.12	119.10103	1677.1842	1046.24377	158.95088	1681.89258	1154.36108	6.95268	1632.47937	1083.00769	46.11238	1637.28101	1197.04163	-21.94942	1437.6925	1117.79431	-56.75819	1144.95776	1120.49866	121.35024	1371.9491	1105.17175	165.34264	1217.19043	1095.12817	-68.77135	1243.96265	1196.83984	49.38467	1403.02368	949.21429	9.68425	1219.30164	866.70355	-10.92138	1069.91492	869.21637	18.5621	960.17432	841.30212	89.49449	838.93542	855.89038	33.90102	838.62946	832.5069	76.66091	764.94452	823.24451	73.13902	1400.24438	1261.74268	27.21002	1197.91992	1363.73816	32.84968	1072.82837	1366.35071	75.60544	959.19678	1394.63794	169.41386	854.51923	1374.32068	126.41225	848.4093	1412.84143	172.85614	775.55511	1407.39539	108.67406	940.39203	999.35693	122.4583	940.64423	1216.81665	-72.76772	947.72675	1059.58606	-64.68285	953.13135	1204.27332	143.31339	617.77148	928.78479	159.33287	486.23962	935.89899	28.7326	357.92474	939.46893	-107.5703	189.70151	994.21155	-150.44328	187.38783	1055.91553	-25.43941	67.12505	971.66064	71.75795	605.72626	1269.48926	81.17111	447.34897	1242.76929	23.23058	279.52457	1250.15698	-7.78424	76.21712	1197.23303	-58.86604	40.37751	1148.47192	132.40242	34.62452	1193.72559	141.39359	1715.59497	1134.63464	-1973.17664	1023.48816	3101.90161	-2012.57568	1021.98022	3140.76099	NaN	NaN	NaN
114	1.13	128.91653	1676.93115	1045.51257	169.06949	1681.8186	1153.52698	16.73044	1632.45923	1082.77917	56.29793	1637.54968	1196.65613	-12.45657	1437.94702	1118.32935	-47.58081	1145.12244	1121.46863	130.72272	1371.86938	1105.11438	174.49574	1217.09631	1095.14661	-59.10777	1244.18469	1197.83252	58.2727	1402.87476	949.34265	16.90045	1219.13647	867.25513	-4.79543	1070.05725	870.87402	22.48758	959.81104	842.9906	90.77538	837.00153	857.87006	35.31141	837.95215	834.25763	76.25777	763.12964	825.53076	83.20995	1400.46167	1261.79089	38.39272	1198.44043	1364.64209	44.96792	1072.97974	1367.25647	89.77463	960.15961	1395.74817	186.11003	858.00769	1375.12048	143.1985	850.59857	1413.2832	191.48596	779.10767	1408.23059	117.52827	940.7829	999.99817	131.08752	940.20599	1217.45728	-64.00396	948.03931	1059.80383	-55.96171	953.1106	1204.40039	156.28169	619.63348	928.40509	173.66611	488.26184	936.0119	47.05872	355.2034	939.50909	-82.47472	181.70308	994.33691	-125.63029	177.38065	1056.31763	5.04033	64.63242	970.48071	77.32684	605.48187	1269.75891	84.84301	446.8815	1242.83264	25.41144	279.61957	1250.1969	-7.63295	76.56084	1197.28894	-58.77297	40.9683	1148.14038	132.4772	34.48349	1193.68848	151.87561	1715.70813	1134.27686	-1973.15662	1023.35126	3101.89502	-2012.60791	1022.02271	3140.7356	NaN	NaN	NaN
115	1.14	138.55954	1676.59241	1044.74243	179.15446	1681.65271	1152.57166	26.39618	1632.56958	1082.58093	66.45948	1637.75562	1196.26025	-2.90829	1437.82532	1118.49976	-38.42439	1145.20325	1122.33167	140.13799	1371.7793	1104.95557	183.68314	1216.87939	1095.0708	-49.4589	1244.29004	1198.66614	67.11475	1402.60022	949.37732	24.57733	1218.80542	868.07251	1.49724	1070.24036	872.13989	26.49081	959.49353	844.57367	92.37714	835.29761	859.79425	36.97608	837.38757	835.80475	76.17843	761.46747	827.7262	93.1585	1400.64709	1261.7998	49.41335	1198.901	1365.58997	56.63698	1073.19202	1368.27661	103.86655	961.10278	1396.35645	202.72928	861.41479	1375.90393	159.67792	852.72174	1413.68286	209.94958	782.71533	1408.93091	126.39693	941.10199	1000.54498	139.6875	939.70544	1217.91357	-55.28836	948.16034	1060.01025	-47.32724	953.11444	1204.53821	168.9879	621.35828	927.93445	187.61327	489.98343	936.0918	65.52592	351.87338	939.20056	-57.57525	173.5179	994.20471	-100.10902	166.61353	1056.46484	36.01893	61.94714	968.91498	82.85345	605.16345	1269.7395	88.44486	446.45654	1242.85254	27.83097	279.75827	1250.07605	-7.35721	77.0514	1197.16931	-58.60589	41.64211	1148.00757	132.68193	34.56033	1193.73938	161.95375	1715.43567	1133.21436	-1973.13184	1023.36328	3101.93823	-2012.66394	1022.039	3140.62012	NaN	NaN	NaN
